<svg xmlns="http://www.w3.org/2000/svg" xmlns:xlink="http://www.w3.org/1999/xlink" viewBox="0 0 425.2 425.2"><defs><style>.cls-1{fill:url(#linear-gradient);}.cls-2{fill:url(#linear-gradient-2);}.cls-3{fill:url(#linear-gradient-4);}</style><linearGradient id="linear-gradient" x1="-0.73" y1="399.16" x2="426.33" y2="399.16" gradientUnits="userSpaceOnUse"><stop offset="0.4" stop-color="#985a36"/><stop offset="0.6" stop-color="#dca576"/><stop offset="0.8" stop-color="#985a36"/></linearGradient><linearGradient id="linear-gradient-2" x1="-0.73" y1="124.45" x2="426.33" y2="124.45" xlink:href="#linear-gradient"/><linearGradient id="linear-gradient-4" x1="-0.73" y1="124.51" x2="426.33" y2="124.51" xlink:href="#linear-gradient"/></defs><title>Asset 6</title><g id="Layer_2" data-name="Layer 2"><g id="Layer_1-2" data-name="Layer 1"><path id="LEDGERIUM-Copy" class="cls-1" d="M10.62,373.79v42.07h22v8.68H0V373.79Zm33.09,0H76.34v8.75h-22v11.4H74.06v8.68H54.33v13.24h22v8.68H43.71Zm64,50.75H89.16V373.79h18.59c11.84,0,20.11,5.89,20.11,22.07v6.61C127.86,418.58,119.59,424.54,107.75,424.54Zm0-8.68c7.06,0,9.49-4.64,9.49-13.39v-6.61c0-8.76-2.43-13.32-9.49-13.32h-8v33.32Zm54.16-17.73H181v4.64c0,15.51-7.44,22.43-19.28,22.43s-20-6.92-20-22.43V396.3c0-16.4,8.28-23.17,20-23.17,11,0,17.61,6,19.2,16.4H170.71c-.91-4.63-3.72-7.72-9-7.72-6.15,0-9.41,4-9.41,13.75v7.21c0,9.7,3.26,13.75,9.41,13.75,6,0,8.42-3.6,9-9.71h-8.8Zm32-24.34h32.63v8.75h-22v11.4H224.3v8.68H204.57v13.24h22v8.68H194Zm85.67,50.75H267.93l-9.41-19.93H250v19.93H239.4V373.79h18.74c12.07,0,19.58,5.22,19.58,15.52,0,6.84-3.26,11.33-9,13.6ZM250,395.93h7.14c6.3,0,9.94-1.32,9.94-6.62s-3.64-6.77-9.94-6.77H250Zm53-22.14v50.75H292.44V373.79Zm46.14,0h10.62v30.15c0,15-8.5,21.26-20.11,21.26S319.6,419,319.6,404V373.79h10.62V404c0,8.68,3,12.5,9.49,12.5s9.49-3.82,9.49-12.5Zm36.34,0,14.72,27.65,14.58-27.65h10.09v50.75H414.76V393.06l-11.38,22.36h-6.45l-11.24-22.14v31.26H375.6V373.79Z"/><path class="cls-2" d="M110.59,79.46Q130,46.3,149.36,13.12a1.2,1.2,0,0,0,.29-.94,1.23,1.23,0,0,0-.53-.85L137.55,0l-.69,1.11Q114.39,39.54,91.94,78a2.41,2.41,0,0,1-2.4,1.37l-29.42,0H21.73V96.16H81.24c-.26.5-.42.82-.61,1.15-3.46,5.88-6.92,11.76-10.3,17.67A2,2,0,0,1,69.07,116H.19v16.81h69a1.39,1.39,0,0,1,.92.8q5.31,9.15,10.65,18.25c.14.28.27.57.38.85H21.73v16.81H90.14a2.12,2.12,0,0,1,1.73,1.23q22.35,38.29,44.76,76.59c.27.48.91,1.52.91,1.52s8-7.89,11.92-11.81a1.24,1.24,0,0,0,.13-1,4.76,4.76,0,0,0-.54-1q-32-54.81-64.11-109.57a1.91,1.91,0,0,1,0-2.23Q97.79,101.41,110.59,79.46Z"/><path class="cls-2" d="M355.24,133.65a1.37,1.37,0,0,1,.92-.8h69V116H356.32a2,2,0,0,1-1.26-1.06c-3.38-5.91-6.84-11.79-10.31-17.67-.18-.33-.34-.65-.6-1.15h59.5V79.35H365.27l-29.42,0A2.42,2.42,0,0,1,333.44,78Q311,39.55,288.52,1.11c-.21-.36-.69-1.11-.69-1.11L276.26,11.33a1.26,1.26,0,0,0-.52.85,1.2,1.2,0,0,0,.29.94l38.76,66.34q12.82,22,25.69,43.88a1.89,1.89,0,0,1,0,2.23q-32.07,54.77-64.1,109.57a4.76,4.76,0,0,0-.54,1,1.2,1.2,0,0,0,.13,1c3.92,3.92,11.92,11.81,11.92,11.81s.63-1,.91-1.52q22.41-38.3,44.75-76.59a2.15,2.15,0,0,1,1.73-1.23h68.41V152.75H344.21c.11-.28.23-.57.37-.85Q349.93,142.8,355.24,133.65Z"/><polygon class="cls-3" points="197.27 58.28 175.96 58.28 175.96 190.74 254.09 190.74 254.09 169.77 197.27 169.77 197.27 58.28"/></g></g></svg>