<?xml version="1.0" encoding="UTF-8"?>
<svg width="140px" height="137px" viewBox="0 0 140 137" version="1.1" xmlns="http://www.w3.org/2000/svg" xmlns:xlink="http://www.w3.org/1999/xlink">
    <!-- Generator: Sketch 52.6 (67491) - http://www.bohemiancoding.com/sketch -->
    <title>Group 3 Copy 2</title>
    <desc>Created with Sketch.</desc>
    <defs>
        <path d="M6,0 L126,0 C129.313708,-6.08718376e-16 132,2.6862915 132,6 L132,123 C132,126.313708 129.313708,129 126,129 L6,129 C2.6862915,129 4.05812251e-16,126.313708 0,123 L0,6 C-4.05812251e-16,2.6862915 2.6862915,-6.49670898e-15 6,-7.10542736e-15 Z" id="path-1"></path>
        <filter x="-5.3%" y="-3.9%" width="110.6%" height="110.9%" filterUnits="objectBoundingBox" id="filter-2">
            <feOffset dx="0" dy="2" in="SourceAlpha" result="shadowOffsetOuter1"></feOffset>
            <feGaussianBlur stdDeviation="2" in="shadowOffsetOuter1" result="shadowBlurOuter1"></feGaussianBlur>
            <feColorMatrix values="0 0 0 0 0   0 0 0 0 0   0 0 0 0 0  0 0 0 0.2 0" type="matrix" in="shadowBlurOuter1"></feColorMatrix>
        </filter>
        <linearGradient x1="-0.171817262%" y1="49.9903975%" x2="100.343635%" y2="49.9903975%" id="linearGradient-3">
            <stop stop-color="#985A36" offset="40%"></stop>
            <stop stop-color="#DCA576" offset="60%"></stop>
            <stop stop-color="#985A36" offset="80%"></stop>
        </linearGradient>
        <linearGradient x1="-0.6155119%" y1="50.0080366%" x2="285.102436%" y2="50.0080366%" id="linearGradient-4">
            <stop stop-color="#985A36" offset="40%"></stop>
            <stop stop-color="#DCA576" offset="60%"></stop>
            <stop stop-color="#985A36" offset="80%"></stop>
        </linearGradient>
        <linearGradient x1="-185.01145%" y1="49.9899578%" x2="100.78298%" y2="49.9899578%" id="linearGradient-5">
            <stop stop-color="#985A36" offset="40%"></stop>
            <stop stop-color="#DCA576" offset="60%"></stop>
            <stop stop-color="#985A36" offset="80%"></stop>
        </linearGradient>
        <linearGradient x1="-226.148726%" y1="50%" x2="320.453091%" y2="50%" id="linearGradient-6">
            <stop stop-color="#985A36" offset="40%"></stop>
            <stop stop-color="#DCA576" offset="60%"></stop>
            <stop stop-color="#985A36" offset="80%"></stop>
        </linearGradient>
    </defs>
    <g id="Branding" stroke="none" stroke-width="1" fill="none" fill-rule="evenodd">
        <g id="A3" transform="translate(-618.000000, -755.000000)">
            <g id="Group-3-Copy-2" transform="translate(622.000000, 757.250000)">
                <g id="Rectangle" fill-rule="nonzero">
                    <use fill="black" fill-opacity="1" filter="url(#filter-2)" xlink:href="#path-1"></use>
                    <use fill="#FFFFFF" xlink:href="#path-1"></use>
                </g>
                <g id="Ledgerium_logosquare_gold" transform="translate(20.000000, 19.000000)">
                    <path d="M2.29962106,80.3894277 L2.29962106,89.2768869 L7.06343117,89.2768869 L7.06343117,91.1105723 L0,91.1105723 L0,80.3894277 L2.29962106,80.3894277 Z M9.46482453,80.3894277 L16.5304211,80.3894277 L16.5304211,82.2379009 L11.766611,82.2379009 L11.766611,84.6461974 L16.0367171,84.6461974 L16.0367171,86.4798829 L11.7644456,86.4798829 L11.7644456,89.2768869 L16.5282557,89.2768869 L16.5282557,91.1105723 L9.46482453,91.1105723 L9.46482453,80.3894277 Z M23.3231812,91.1105723 L19.3064231,91.1105723 L19.3064231,80.3894277 L23.3318427,80.3894277 C25.8956387,80.3894277 27.6863982,81.6337142 27.6863982,85.0518053 L27.6863982,86.4481947 C27.6863982,89.851498 25.8956387,91.1105723 23.3318427,91.1105723 L23.3231812,91.1105723 Z M23.3231812,89.2768869 C24.8519312,89.2768869 25.3781157,88.2966679 25.3781157,86.4481947 L25.3781157,85.0518053 C25.3781157,83.2012195 24.8519312,82.2379009 23.3231812,82.2379009 L21.5908866,82.2379009 L21.5908866,89.2768869 L23.3231812,89.2768869 Z M35.0508155,85.531352 L39.193165,85.531352 L39.193165,86.511571 C39.193165,89.7881218 37.582131,91.25 35.018335,91.25 C32.454539,91.25 30.6875986,89.7881218 30.6875986,86.511571 L30.6875986,85.1447571 C30.6875986,81.6801901 32.4805235,80.25 35.018335,80.25 C37.4002401,80.25 38.8315485,81.5175245 39.175842,83.7145669 L36.9650011,83.7145669 C36.7679526,82.7364605 36.1594841,82.0836854 35.0161697,82.0836854 C33.6844682,82.0836854 32.9785581,82.9287017 32.9785581,84.988429 L32.9785581,86.511571 C32.9785581,88.5607355 33.6844682,89.4163146 35.0161697,89.4163146 C36.3153906,89.4163146 36.8394097,88.6557999 36.9650011,87.3650374 L35.059477,87.3650374 L35.0508155,85.531352 Z M41.9799939,80.3894277 L49.0455904,80.3894277 L49.0455904,82.2379009 L44.2817803,82.2379009 L44.2817803,84.6461974 L48.5692094,84.6461974 L48.5692094,86.4798829 L44.2969379,86.4798829 L44.2969379,89.2768869 L49.060748,89.2768869 L49.060748,91.1105723 L42.0081437,91.1105723 L41.9799939,80.3894277 Z M60.5307035,91.1105723 L58.016711,91.1105723 L55.9790995,86.9002785 L54.1342058,86.9002785 L54.1342058,91.1105723 L51.8389154,91.1105723 L51.8389154,80.3894277 L55.8968155,80.3894277 C58.510415,80.3894277 60.1366065,81.492174 60.1366065,83.668091 C60.1366065,85.1130689 59.4306964,86.0615998 58.1877751,86.5411465 L60.5307035,91.1105723 Z M54.1342058,85.066593 L55.6802787,85.066593 C57.0444607,85.066593 57.8326547,84.7877377 57.8326547,83.668091 C57.8326547,82.5484444 57.0444607,82.2379009 55.6802787,82.2379009 L54.1342058,82.2379009 L54.1342058,85.066593 Z M65.6106574,80.3894277 L65.6106574,91.1105723 L63.3240285,91.1105723 L63.3240285,80.3894277 L65.6106574,80.3894277 Z M75.6016664,80.3894277 L77.9012875,80.3894277 L77.9012875,86.7587382 C77.9012875,89.9275495 76.0607245,91.25 73.5467319,91.25 C71.0327394,91.25 69.2051686,89.9402247 69.2051686,86.7714135 L69.2051686,80.3894277 L71.5047897,80.3894277 L71.5047897,86.7714135 C71.5047897,88.6050989 72.1544002,89.4120895 73.5597242,89.4120895 C74.9650481,89.4120895 75.6146586,88.6050989 75.6146586,86.7714135 L75.6016664,80.3894277 Z M83.4706145,80.3894277 L86.6580366,86.230603 L89.8151435,80.3894277 L92,80.3894277 L92,91.1105723 L89.8108127,91.1105723 L89.8108127,84.4602938 L87.3466237,89.1839351 L85.9499612,89.1839351 L83.5160873,84.5067697 L83.5160873,91.1105723 L81.3312307,91.1105723 L81.3312307,80.3894277 L83.4706145,80.3894277 Z" id="LEDGERIUM-Copy" fill="url(#linearGradient-3)" fill-rule="nonzero"></path>
                    <path d="M24.3742713,17.1726875 C27.2311831,12.4646053 30.0844153,7.75510327 32.9339678,3.04418147 C32.9839871,2.98934282 33.0072907,2.91647937 32.9979944,2.84398859 C32.9873819,2.77036519 32.944844,2.7045574 32.8809802,2.66296311 L30.3265389,0.25 L30.1741997,0.486397975 C26.8668937,5.9427188 23.5610596,11.4011693 20.2566973,16.8617496 C20.1611603,17.0567325 19.9494528,17.1733071 19.7268219,17.1535201 L13.2314318,17.1535201 L4.75563227,17.1535201 L4.75563227,20.7293056 L17.8943359,20.7293056 C17.8369327,20.8357912 17.8016077,20.903942 17.7596592,20.9742225 C16.9957554,22.2264928 16.2318517,23.4787632 15.4856104,24.7374226 C15.428825,24.8444632 15.3277835,24.9233652 15.2074258,24.9546532 L0,24.9546532 L0,28.5346982 L15.2339195,28.5346982 C15.3252111,28.5582902 15.4001416,28.6211422 15.4370385,28.7050751 C16.2186048,30.0041991 17.0023789,31.2997736 17.7883608,32.5917986 C17.8192702,32.6514305 17.8479718,32.7131922 17.8722578,32.7728241 L4.75563227,32.7728241 L4.75563227,36.3528691 L19.8592908,36.3528691 C20.026021,36.3679879 20.1716739,36.4678811 20.2412426,36.6148236 C23.5308861,42.0512671 26.8249453,47.4884205 30.12342,52.9262839 C30.183031,53.02851 30.3243311,53.25 30.3243311,53.25 C30.3243311,53.25 32.0905827,51.5696576 32.9560459,50.7348107 C32.9964569,50.6709477 33.0068881,50.5935467 32.9847475,50.5218396 C32.9539665,50.4465112 32.9139406,50.3750113 32.8655255,50.3088684 C28.1555214,42.5269027 23.437422,34.7484864 18.7112273,26.9736197 C18.6054776,26.8317439 18.6054776,26.6405699 18.7112273,26.498694 C20.6025883,23.3978341 22.4902696,20.2891653 24.3742713,17.1726875 Z" id="Path" fill="url(#linearGradient-4)"></path>
                    <path d="M76.5588293,28.7033039 C76.5951743,28.6190095 76.6703621,28.5559813 76.7620026,28.5329886 L92,28.5329886 L92,24.945722 L76.7973371,24.945722 C76.6752757,24.9125031 76.5739183,24.8303023 76.519078,24.7200542 C75.7726369,23.4618498 75.0085287,22.2100321 74.242212,20.9582145 C74.2024607,20.8879594 74.1671262,20.8198333 74.1097077,20.7133862 L87.2497199,20.7133862 L87.2497199,17.1431512 L78.7738599,17.1431512 L72.2767312,17.1431512 C72.0544577,17.1639549 71.8422003,17.0493338 71.7445054,16.8557441 C68.4407309,11.3985573 65.1340119,5.94208007 61.8243483,0.486312513 C61.7779718,0.409670617 61.6719683,0.25 61.6719683,0.25 L59.1168432,2.66209078 C59.0543976,2.70463715 59.0128664,2.77008189 59.0020061,2.84305081 C58.9927074,2.91551539 59.0160172,2.9883525 59.0660499,3.04317132 L67.6258293,17.1665696 C69.5132798,20.2890172 71.404411,23.4029491 73.2992229,26.5083651 C73.4063849,26.649757 73.4063849,26.8417273 73.2992229,26.9831191 C68.5776521,34.7565944 63.8590258,42.5321986 59.1433441,50.3099317 C59.094916,50.3760507 59.0548794,50.4475247 59.0240902,50.5228259 C59.0007644,50.5944115 59.0112628,50.6722631 59.0527995,50.73572 C59.9184944,51.5702651 61.6852187,53.25 61.6852187,53.25 C61.6852187,53.25 61.8243483,53.0371058 61.8861836,52.9264009 C65.1855413,47.4905034 68.4797461,42.0553157 71.7687979,36.6208375 C71.8394582,36.4748063 71.9845655,36.3753498 72.150852,36.3589777 L87.2585536,36.3589777 L87.2585536,32.7695822 L74.1229581,32.7695822 C74.1472505,32.7099719 74.1737514,32.6482326 74.2046691,32.5886222 C74.9923337,31.2970643 75.7770537,30.0019582 76.5588293,28.7033039 Z" id="Path" fill="url(#linearGradient-5)"></path>
                    <polygon id="Path" fill="url(#linearGradient-6)" points="42.3640087 13.25 38 13.25 38 41.25 54 41.25 54 36.8172656 42.3640087 36.8172656"></polygon>
                </g>
            </g>
        </g>
    </g>
</svg>