<svg xmlns="http://www.w3.org/2000/svg" viewBox="0 0 470.48 470.48"><defs><style>.cls-1{fill:#1f3160;}.cls-2{fill:none;stroke:#1f3160;stroke-miterlimit:10;stroke-width:2px;}</style></defs><title>Asset 7</title><g id="Layer_2" data-name="Layer 2"><g id="Layer_1-2" data-name="Layer 1"><path class="cls-1" d="M133.14,190.25l38.76-66.34a1.16,1.16,0,0,0,.29-.94,1.19,1.19,0,0,0-.52-.85L160.1,110.79s-.48.75-.69,1.11q-22.49,38.43-44.92,76.85a2.42,2.42,0,0,1-2.4,1.37l-29.42,0H44.28V207h59.51l-.61,1.15c-3.47,5.88-6.93,11.76-10.3,17.67a2,2,0,0,1-1.27,1.06H22.73v16.81h69a1.4,1.4,0,0,1,.93.8q5.3,9.15,10.65,18.25c.14.28.26.57.37.85H44.28v16.81h68.41a2.15,2.15,0,0,1,1.73,1.23q22.35,38.3,44.75,76.59c.28.48.92,1.52.92,1.52s8-7.89,11.92-11.81a1.24,1.24,0,0,0,.12-1,4.76,4.76,0,0,0-.54-1q-32-54.81-64.1-109.57a1.91,1.91,0,0,1,0-2.23Q120.32,212.2,133.14,190.25Z"/><path class="cls-1" d="M377.78,244.44a1.39,1.39,0,0,1,.92-.8h69V226.83H378.86a2,2,0,0,1-1.26-1.06c-3.38-5.91-6.84-11.79-10.3-17.67-.19-.33-.35-.65-.61-1.15H426.2V190.14H387.81l-29.42,0a2.41,2.41,0,0,1-2.4-1.37q-22.44-38.42-44.92-76.85l-.69-1.11-11.57,11.33a1.23,1.23,0,0,0-.53.85,1.2,1.2,0,0,0,.29.94l38.77,66.34q12.81,22,25.69,43.88a1.91,1.91,0,0,1,0,2.23q-32.07,54.76-64.1,109.57a4,4,0,0,0-.54,1,1.2,1.2,0,0,0,.12,1c3.92,3.92,11.92,11.81,11.92,11.81s.64-1,.91-1.52q22.41-38.3,44.76-76.59a2.12,2.12,0,0,1,1.73-1.23H426.2V263.54H366.76c.11-.28.23-.57.37-.85Q372.47,253.59,377.78,244.44Z"/><polygon class="cls-1" points="219.81 169.07 198.5 169.07 198.5 301.53 276.63 301.53 276.63 280.56 219.81 280.56 219.81 169.07"/><circle class="cls-2" cx="235.24" cy="235.24" r="234.24"/></g></g></svg>