<svg xmlns="http://www.w3.org/2000/svg" viewBox="0 0 157.27 178.43"><defs><style>.cls-1{fill:#1f3161;}</style></defs><title>Asset 7</title><g id="Layer_2" data-name="Layer 2"><g id="Layer_1-2" data-name="Layer 1"><polygon class="cls-1" points="130.3 67.32 130.3 120.63 84.14 147.28 84.14 178.43 157.27 136.2 157.27 51.75 130.3 67.32"/><polygon class="cls-1" points="78.64 31.14 124.8 57.8 151.77 42.23 78.64 0 5.5 42.23 32.47 57.8 78.64 31.14"/><polygon class="cls-1" points="116.1 112.43 105.1 106.08 53.44 135.91 42.79 129.76 94.46 99.94 83.46 93.58 31.79 123.41 26.97 120.63 26.97 113.91 78.64 84.08 78.64 71.38 26.97 101.2 26.97 88.91 78.64 59.08 78.64 46.38 26.97 76.21 26.97 67.32 0 51.75 0 136.2 73.14 178.43 73.14 147.28 64.44 142.26 116.1 112.43"/></g></g></svg>