<svg xmlns="http://www.w3.org/2000/svg" viewBox="0 0 381.49 178.43"><defs><style>.cls-1{fill:#1f3161;}</style></defs><title>Asset 6</title><g id="Layer_2" data-name="Layer 2"><g id="Layer_1-2" data-name="Layer 1"><polygon class="cls-1" points="130.3 67.32 130.3 120.63 84.14 147.28 84.14 178.43 157.27 136.2 157.27 51.75 130.3 67.32"/><polygon class="cls-1" points="78.64 31.14 124.8 57.8 151.77 42.23 78.64 0 5.5 42.23 32.47 57.8 78.64 31.14"/><polygon class="cls-1" points="116.1 112.43 105.1 106.08 53.44 135.91 42.79 129.76 94.46 99.94 83.46 93.58 31.79 123.41 26.97 120.63 26.97 113.91 78.64 84.08 78.64 71.38 26.97 101.2 26.97 88.91 78.64 59.08 78.64 46.38 26.97 76.21 26.97 67.32 0 51.75 0 136.2 73.14 178.43 73.14 147.28 64.44 142.26 116.1 112.43"/><path class="cls-1" d="M219.08,52.59a7,7,0,0,1-4.46,6.61c4,1.22,5.49,5.48,5.49,7.64,0,7.63-5.73,10.08-12.83,10.08H191V42.65h16.26C214,42.65,219.08,45.68,219.08,52.59Zm-21.69,3.82h9.89c4.06,0,5.38-1.72,5.38-3.68,0-1.56-1.27-4.21-5.38-4.21h-9.89Zm0,14.49h9.89c2.64,0,6.41-.88,6.41-4.11s-3.77-4.7-6.41-4.7h-9.89Z"/><path class="cls-1" d="M231.12,42.65V71h17.63v6H224.66V42.65Z"/><path class="cls-1" d="M320.92,72.61a18,18,0,0,1-13,5.1c-12.73,0-18.12-8.77-18.17-17.68S295.51,42,307.9,42a17.65,17.65,0,0,1,12.58,5.24l-4.31,4.16a11.78,11.78,0,0,0-8.27-3.23c-8.28,0-11.85,6.17-11.8,11.9s3.33,11.6,11.8,11.6a12.66,12.66,0,0,0,8.62-3.47Z"/><path class="cls-1" d="M352.11,42.84,336.88,59.25l16.51,17.28v.39h-8L331.06,61.74V76.92h-6.47V42.65h6.47V57.14l13-14.49h8Z"/><path class="cls-1" d="M197.68,101.4v28.31h17.63v6H191.22V101.4Z"/><path class="cls-1" d="M245.42,135.68H219.76V101.4h25.66v6.27H226.18v7.89h18.55v6H226.18v7.73h19.24Z"/><path class="cls-1" d="M280.58,118.25c.14,8.67-5.15,17.43-17.14,17.43H250V101.4h13.47C275.19,101.4,280.43,109.78,280.58,118.25Zm-24.19,11.21h7.05c7.78,0,10.87-5.68,10.72-11.26-.15-5.34-3.28-10.67-10.72-10.67h-7.05Z"/><path class="cls-1" d="M310.3,109.78a13.12,13.12,0,0,0-8.72-3.43c-7.34,0-11.8,5.58-11.8,12.63,0,5.63,3.28,11.46,11.8,11.46a11.44,11.44,0,0,0,7.74-2.74v-6.07h-8.77v-5.78h14.69v14.44a17.07,17.07,0,0,1-13.66,6.17c-12.88,0-18.12-8.47-18.12-17.48,0-9.64,6-18.56,18.12-18.56a18.09,18.09,0,0,1,12.73,5.25Z"/><path class="cls-1" d="M346.09,135.68H320.43V101.4h25.66v6.27H326.85v7.89H345.4v6H326.85v7.73h19.24Z"/><path class="cls-1" d="M381.49,135.68H373.8l-10-11.46H357.6v11.46h-6.47V101.36c5.44,0,10.87,0,16.31,0,8.08,0,12.34,5.44,12.34,11.36,0,4.7-2.16,9.45-8.67,10.78l10.38,11.7ZM357.6,107.43v11h9.84c4.11,0,5.87-2.75,5.87-5.49s-1.81-5.48-5.87-5.48Z"/><polygon class="cls-1" points="286.08 51.66 280.19 55.06 280.19 66.69 270.12 72.51 270.12 79.3 286.08 70.09 286.08 51.66"/><polygon class="cls-1" points="268.92 47.16 278.99 52.98 284.88 49.58 268.92 40.36 252.96 49.58 258.84 52.98 268.92 47.16"/><polygon class="cls-1" points="257.64 66.69 257.64 55.06 251.75 51.66 251.75 70.09 267.72 79.3 267.72 72.51 257.64 66.69"/></g></g></svg>