<svg xmlns="http://www.w3.org/2000/svg" viewBox="0 0 157.27 249.57"><defs><style>.cls-1,.cls-2{fill:#1f3161;}.cls-1{fill-rule:evenodd;}</style></defs><title>Asset 5</title><g id="Layer_2" data-name="Layer 2"><g id="Layer_1-2" data-name="Layer 1"><g id="Page-1"><g id="A4"><g id="Group-9"><path id="Fill-1" class="cls-1" d="M7.36,242.58a.55.55,0,0,1-.54-.56V208.19a.56.56,0,0,0-.55-.56H.55a.56.56,0,0,0-.55.56V249a.56.56,0,0,0,.55.56H28.81a.56.56,0,0,0,.55-.56v-5.87a.56.56,0,0,0-.55-.56Z"/><path id="Fill-3" class="cls-1" d="M66.83,207.63a.57.57,0,0,0-.57.56V242a.56.56,0,0,1-.57.56H45.45a.56.56,0,0,1-.57-.56V208.19a.57.57,0,0,0-.57-.56h-6a.57.57,0,0,0-.57.56V249a.56.56,0,0,0,.57.56h34.5a.56.56,0,0,0,.57-.56V208.19a.57.57,0,0,0-.57-.56Z"/><path id="Fill-5" class="cls-1" d="M149.62,249.07a1,1,0,0,0,.78.5h6.51a.33.33,0,0,0,.32-.5L138.4,208.14a1,1,0,0,0-.78-.51h-6.83a1,1,0,0,0-.78.51l-18.82,40.93a.32.32,0,0,0,.31.5H118a.94.94,0,0,0,.78-.5l15.18-33c.13-.28.34-.28.47,0Z"/><path id="Fill-7" class="cls-1" d="M118.22,214.62a.92.92,0,0,0,.77-.51l2.59-6a.33.33,0,0,0-.32-.51H82.32a.56.56,0,0,0-.54.56V249a.56.56,0,0,0,.54.56h20.09a.92.92,0,0,0,.77-.5l2.71-6a.33.33,0,0,0-.31-.5H89.1a.56.56,0,0,1-.54-.56V215.18a.56.56,0,0,1,.54-.56Z"/></g></g></g><polygon class="cls-2" points="130.3 67.32 130.3 120.63 84.14 147.28 84.14 178.43 157.27 136.2 157.27 51.75 130.3 67.32"/><polygon class="cls-2" points="78.64 31.14 124.8 57.8 151.77 42.23 78.64 0 5.5 42.23 32.47 57.8 78.64 31.14"/><polygon class="cls-2" points="116.1 112.43 105.1 106.08 53.44 135.91 42.79 129.76 94.46 99.94 83.46 93.58 31.79 123.41 26.97 120.63 26.97 113.91 78.64 84.08 78.64 71.38 26.97 101.2 26.97 88.91 78.64 59.08 78.64 46.38 26.97 76.21 26.97 67.32 0 51.75 0 136.2 73.14 178.43 73.14 147.28 64.44 142.26 116.1 112.43"/></g></g></svg>