<svg xmlns="http://www.w3.org/2000/svg" viewBox="0 0 425.01 425.2"><defs><style>.cls-1{fill:#1f3160;}</style></defs><title>Asset 2</title><g id="Layer_2" data-name="Layer 2"><g id="Layer_1-2" data-name="Layer 1"><path id="LEDGERIUM-Copy" class="cls-1" d="M30.8,379V416.8H50.59v7.8H21.24V379Zm29.75,0H89.91v7.88H70.11v10.25H87.86v7.81H70.11V416.8h19.8v7.8H60.55Zm57.62,45.65H101.44V379h16.73c10.65,0,18.09,5.3,18.09,19.85v6C136.26,419.24,128.82,424.6,118.17,424.6Zm0-7.8c6.35,0,8.53-4.17,8.53-12v-6c0-7.87-2.18-12-8.53-12H111v30Zm48.72-15.95H184V405c0,14-6.69,20.18-17.34,20.18s-18-6.22-18-20.18V399.2c0-14.75,7.44-20.84,18-20.84,9.9,0,15.84,5.42,17.28,14.75h-9.15c-.82-4.17-3.35-6.94-8.13-6.94-5.53,0-8.46,3.63-8.46,12.37V405c0,8.73,2.93,12.37,8.46,12.37s7.58-3.24,8.13-8.73h-7.92ZM195.71,379h29.36v7.88h-19.8v10.25H223v7.81H205.27V416.8h19.8v7.8H195.71Zm77.07,45.65H262.27l-8.47-17.93h-7.64V424.6H236.6V379h16.86c10.86,0,17.62,4.7,17.62,14,0,6.16-2.94,10.19-8.06,12.24Zm-26.62-25.73h6.41c5.67,0,8.95-1.19,8.95-6s-3.28-6.08-8.95-6.08h-6.41ZM293.87,379V424.6h-9.56V379Zm41.5,0h9.56v27.13c0,13.49-7.64,19.12-18.09,19.12s-18.09-5.63-18.09-19.06V379h9.56v27.19c0,7.81,2.66,11.25,8.53,11.25s8.53-3.44,8.53-11.25Zm32.7,0,13.24,24.88L394.42,379h9.08V424.6h-9.15V396.29L384.11,416.4h-5.8l-10.1-19.91V424.6h-9.08V379Z"/><path class="cls-1" d="M110.4,79.46q19.38-33.16,38.77-66.34a1.2,1.2,0,0,0,.29-.94,1.23,1.23,0,0,0-.53-.85L137.37,0s-.48.75-.7,1.11Q114.2,39.54,91.75,78a2.41,2.41,0,0,1-2.4,1.37l-29.42,0H21.54V96.16H81.05c-.26.5-.42.82-.61,1.15C77,103.19,73.52,109.07,70.14,115A2,2,0,0,1,68.88,116H0v16.81H69a1.39,1.39,0,0,1,.92.8q5.31,9.15,10.65,18.25c.14.28.27.57.38.85H21.54v16.81H90a2.12,2.12,0,0,1,1.73,1.23q22.35,38.29,44.76,76.59c.27.48.91,1.52.91,1.52s8-7.89,11.92-11.81a1.2,1.2,0,0,0,.13-1,4.76,4.76,0,0,0-.54-1q-32-54.81-64.11-109.57a1.91,1.91,0,0,1,0-2.23Q97.6,101.41,110.4,79.46Z"/><path class="cls-1" d="M355.05,133.65a1.37,1.37,0,0,1,.92-.8h69V116H356.13a2,2,0,0,1-1.26-1.06c-3.38-5.91-6.84-11.79-10.3-17.67-.19-.33-.35-.65-.61-1.15h59.5V79.35H365.08l-29.42,0A2.42,2.42,0,0,1,333.25,78Q310.81,39.55,288.33,1.11c-.21-.36-.69-1.11-.69-1.11L276.07,11.33a1.26,1.26,0,0,0-.52.85,1.2,1.2,0,0,0,.29.94q19.38,33.18,38.77,66.34,12.81,22,25.68,43.88a1.89,1.89,0,0,1,0,2.23q-32.07,54.77-64.1,109.57a4.76,4.76,0,0,0-.54,1,1.2,1.2,0,0,0,.13,1c3.92,3.92,11.92,11.81,11.92,11.81s.63-1,.91-1.52q22.41-38.3,44.75-76.59a2.15,2.15,0,0,1,1.73-1.23h68.41V152.75H344c.11-.28.23-.57.37-.85Q349.75,142.8,355.05,133.65Z"/><polygon class="cls-1" points="197.08 58.28 175.76 58.28 175.76 190.74 253.9 190.74 253.9 169.77 197.08 169.77 197.08 58.28"/></g></g></svg>