<svg xmlns="http://www.w3.org/2000/svg" viewBox="0 0 1417.32 283.46"><defs><style>.cls-1{fill:#1f3160;}</style></defs><title>Asset 3</title><g id="Layer_2" data-name="Layer 2"><g id="Layer_1-2" data-name="Layer 1"><g id="Symbols"><g id="Header"><g id="Group-4"><g id="Group-5"><path id="LEDGERIUM-Copy" class="cls-1" d="M570.92,89.93v85.88h45v17.72H549.21V89.93Zm67.58,0h66.67V107.8h-45v23.27h40.31v17.72H660.21v27h45v17.72H638.5Zm130.84,103.6h-38V89.93h38c24.19,0,41.09,12,41.09,45v13.51C810.43,181.37,793.53,193.53,769.34,193.53Zm0-17.72c14.42,0,19.38-9.45,19.38-27.32V135c0-17.87-5-27.18-19.38-27.18H753.06v68ZM880,139.63H918.9v9.46c0,31.68-15.2,45.79-39.39,45.79-24,0-40.93-14.11-40.93-45.79V135.88c0-33.48,16.9-47.3,40.93-47.3,22.49,0,36,12.31,39.23,33.48H898c-1.86-9.45-7.59-15.76-18.45-15.76-12.55,0-19.22,8.26-19.22,28.08v14.71c0,19.82,6.67,28.08,19.22,28.08,12.25,0,17.21-7.36,18.45-19.82H880Zm65.46-49.7h66.67V107.8h-45v23.27h40.31v17.72H967.14v27h45v17.72H945.44Zm175,103.6h-23.87l-19.23-40.69H1060v40.69h-21.71V89.93h38.3c24.65,0,40,10.66,40,31.68,0,14-6.67,23.13-18.3,27.78ZM1060,135.13h14.57c12.87,0,20.31-2.71,20.31-13.52s-7.44-13.81-20.31-13.81H1060Zm108.36-45.2v103.6h-21.71V89.93Zm94.25,0h21.7v61.56c0,30.63-17.36,43.39-41.08,43.39s-41.09-12.76-41.09-43.24V89.93h21.71v61.71c0,17.72,6,25.53,19.38,25.53s19.38-7.81,19.38-25.53Zm74.25,0,30.07,56.46,29.77-56.46h20.62v103.6h-20.77V129.27l-23.26,45.64h-13.18l-22.94-45.19v63.81h-20.63V89.93Z"/></g></g></g></g><path class="cls-1" d="M125.81,90.49Q147.9,52.73,170,15a1.36,1.36,0,0,0-.27-2L156.54,0l-.79,1.26Q130.15,45,104.56,88.79a2.72,2.72,0,0,1-2.74,1.55l-33.52,0H24.55v19.14H92.37c-.3.57-.48.94-.7,1.31-3.94,6.71-7.89,13.4-11.74,20.13a2.28,2.28,0,0,1-1.44,1.21H0V151.3H78.68a1.6,1.6,0,0,1,1,.92q6,10.41,12.14,20.78a9.16,9.16,0,0,1,.42,1H24.55v19.14h78a2.44,2.44,0,0,1,2,1.4q25.47,43.61,51,87.23c.32.54,1.05,1.72,1.05,1.72s9.11-9,13.58-13.45a1.34,1.34,0,0,0,.14-1.09,5.09,5.09,0,0,0-.61-1.12q-36.51-62.42-73-124.79a2.16,2.16,0,0,1,0-2.54Q111.21,115.49,125.81,90.49Z"/><path class="cls-1" d="M404.61,152.22a1.6,1.6,0,0,1,1.05-.92h78.68V132.16H405.85a2.28,2.28,0,0,1-1.44-1.21c-3.85-6.73-7.8-13.42-11.74-20.13-.21-.37-.4-.74-.7-1.31h67.82V90.37H416l-33.52,0a2.72,2.72,0,0,1-2.74-1.55Q354.21,45,328.59,1.26L327.8,0,314.62,12.91a1.36,1.36,0,0,0-.27,2q22.08,37.77,44.18,75.54,14.6,25,29.27,50a2.15,2.15,0,0,1-.05,2.54Q351.21,205.38,314.7,267.8a5.09,5.09,0,0,0-.61,1.12,1.34,1.34,0,0,0,.14,1.09c4.47,4.47,13.58,13.45,13.58,13.45s.73-1.18,1.05-1.72q25.53-43.62,51-87.23a2.44,2.44,0,0,1,2-1.4h78V174H392.05a9.16,9.16,0,0,1,.42-1Q398.58,162.64,404.61,152.22Z"/><polygon class="cls-1" points="224.59 66.38 200.3 66.38 200.3 217.23 289.35 217.23 289.35 193.35 224.59 193.35 224.59 66.38"/></g></g></svg>