<svg xmlns="http://www.w3.org/2000/svg" viewBox="0 0 425.01 248.9"><defs><style>.cls-1{fill:#1f3160;}</style></defs><title>Asset 1</title><g id="Layer_2" data-name="Layer 2"><g id="Layer_1-2" data-name="Layer 1"><path class="cls-1" d="M110.4,79.46q19.38-33.16,38.77-66.34a1.2,1.2,0,0,0,.29-.94,1.23,1.23,0,0,0-.53-.85L137.37,0s-.48.75-.7,1.11Q114.2,39.54,91.75,78a2.41,2.41,0,0,1-2.4,1.37l-29.42,0H21.54V96.16H81.05c-.26.5-.42.82-.61,1.15C77,103.19,73.52,109.07,70.14,115A2,2,0,0,1,68.88,116H0v16.81H69a1.39,1.39,0,0,1,.92.8q5.31,9.15,10.65,18.25c.14.28.27.57.38.85H21.54v16.81H90a2.12,2.12,0,0,1,1.73,1.23q22.35,38.29,44.76,76.59c.27.48.91,1.52.91,1.52s8-7.89,11.92-11.81a1.2,1.2,0,0,0,.13-1,4.76,4.76,0,0,0-.54-1q-32-54.81-64.11-109.57a1.91,1.91,0,0,1,0-2.23Q97.6,101.41,110.4,79.46Z"/><path class="cls-1" d="M355.05,133.65a1.37,1.37,0,0,1,.92-.8h69V116H356.13a2,2,0,0,1-1.26-1.06c-3.38-5.91-6.84-11.79-10.3-17.67-.19-.33-.35-.65-.61-1.15h59.5V79.35H365.08l-29.42,0A2.42,2.42,0,0,1,333.25,78Q310.81,39.55,288.33,1.11c-.21-.36-.69-1.11-.69-1.11L276.07,11.33a1.26,1.26,0,0,0-.52.85,1.2,1.2,0,0,0,.29.94q19.38,33.18,38.77,66.34,12.81,22,25.68,43.88a1.89,1.89,0,0,1,0,2.23q-32.07,54.77-64.1,109.57a4.76,4.76,0,0,0-.54,1,1.2,1.2,0,0,0,.13,1c3.92,3.92,11.92,11.81,11.92,11.81s.63-1,.91-1.52q22.41-38.3,44.75-76.59a2.15,2.15,0,0,1,1.73-1.23h68.41V152.75H344c.11-.28.23-.57.37-.85Q349.75,142.8,355.05,133.65Z"/><polygon class="cls-1" points="197.08 58.28 175.76 58.28 175.76 190.74 253.9 190.74 253.9 169.77 197.08 169.77 197.08 58.28"/></g></g></svg>