<?xml version="1.0" encoding="UTF-8"?>
<svg width="75px" height="20px" viewBox="0 0 75 20" version="1.1" xmlns="http://www.w3.org/2000/svg" xmlns:xlink="http://www.w3.org/1999/xlink">
    <!-- Generator: Sketch 52 (66869) - http://www.bohemiancoding.com/sketch -->
    <title>Group 9@1x</title>
    <desc>Created with Sketch.</desc>
    <g id="Page-1" stroke="none" stroke-width="1" fill="none" fill-rule="evenodd">
        <g id="A4" transform="translate(-135.000000, -93.000000)" fill="#1F3161">
            <g id="Group-9" transform="translate(135.000000, 93.000000)">
                <path d="M3.51042659,16.6665099 C3.36731237,16.6665099 3.25034402,16.5465663 3.25034402,16.4002822 L3.25034402,0.266698024 C3.25034402,0.119943556 3.13337567,0 2.99026146,0 L0.260082566,0 C0.11696835,0 0,0.119943556 0,0.266698024 L0,16.4002822 L0,16.9332079 L0,19.733302 C0,19.8800564 0.11696835,20 0.260082566,20 L2.99026146,20 L3.51042659,20 L13.7403761,20 C13.8830317,20 14,19.8800564 14,19.733302 L14,16.9332079 C14,16.7864534 13.8830317,16.6665099 13.7403761,16.6665099 L3.51042659,16.6665099 Z" id="Fill-1"></path>
                <path d="M31.8714895,0 C31.7217816,0 31.5994242,0.119943556 31.5994242,0.266698024 L31.5994242,16.4002822 C31.5994242,16.5465663 31.4770668,16.6665099 31.3273589,16.6665099 L21.6726411,16.6665099 C21.5229332,16.6665099 21.4005758,16.5465663 21.4005758,16.4002822 L21.4005758,0.266698024 C21.4005758,0.119943556 21.2777386,0 21.1285105,0 L18.2720653,0 C18.1223574,0 18,0.119943556 18,0.266698024 L18,16.4002822 L18,16.9332079 L18,19.733302 C18,19.8800564 18.1223574,20 18.2720653,20 L21.1285105,20 L21.6726411,20 L31.3273589,20 L31.8714895,20 L34.7279347,20 C34.8771628,20 35,19.8800564 35,19.733302 L35,0.266698024 C35,0.119943556 34.8771628,0 34.7279347,0 L31.8714895,0 Z" id="Fill-3"></path>
                <path d="M71.3497364,19.7582314 C71.4109804,19.8908749 71.5794012,20 71.7236956,20 L74.8257939,20 C74.9705523,20 75.0387557,19.8908749 74.9775118,19.7582314 L66.0006353,0.241768579 C65.9393913,0.108654751 65.7709705,0 65.6262121,0 L62.3733239,0 C62.2285655,0 62.0601447,0.108654751 61.9989007,0.241768579 L53.0224882,19.7582314 C52.9612443,19.8908749 53.0294477,20 53.1742061,20 L56.2758404,20 C56.4205988,20 56.5890196,19.8908749 56.6497996,19.7582314 L63.8886474,4.02069614 C63.9498913,3.88805268 64.0501087,3.88805268 64.1108886,4.02069614 L71.3497364,19.7582314 Z" id="Fill-5"></path>
                <path d="M56.3784346,3.33239278 C56.5208059,3.33239278 56.6846243,3.22328819 56.7425767,3.08925884 L57.9791999,0.243133935 C58.0376087,0.10910459 57.9687046,0 57.8263332,0 L42.4922056,0 L41.9751968,0 L39.2587326,0 C39.1163612,0 39,0.119920993 39,0.266177577 L39,3.0662152 L39,3.59904063 L39,16.3967269 L39,16.9300226 L39,19.7291196 C39,19.8763168 39.1163612,19.9962378 39.2587326,19.9962378 L48.8368584,20 C48.9792297,20 49.144417,19.8913657 49.2046511,19.7587472 L50.4960325,16.9046275 C50.5562666,16.772009 50.4891877,16.6633747 50.3468164,16.6633747 L42.4922056,16.6633747 C42.3502906,16.6633747 42.233473,16.5434537 42.233473,16.3967269 L42.233473,3.59904063 C42.233473,3.45278405 42.3502906,3.33239278 42.4922056,3.33239278 L56.3784346,3.33239278 Z" id="Fill-7"></path>
            </g>
        </g>
    </g>
</svg>